# xmcd
#
# Track frame offsets:
#	150
#	11720
#	22207
#	34892
#	45227
#	58240
#	72365
#	83472
#	93040
#	106210
#	112725
#	122695
#	137400
#	151142
#	160995
#	173425
#	184942
#	198862
#
# Disc length: 2820
#
# Revision: 4
# Processed by: cddbd v1.5.1PL0 Copyright (c) Steve Scherf et al.
# Submitted via: CDex 1.51
# Normalized: r2:DSETVAR1,TDELIM( - ),TSWAP
#
DISCID=d80b0212
DTITLE=Various Artist - Classic Country [CD3 - I Fall To Pieces)
DYEAR=1996
DGENRE=Country
TTITLE0=Patsy Cline - Walking After Midnight
TTITLE1=Jim Reeves - He'll Have To Go
TTITLE2=Charley Pride - Crystal Chandeliers
TTITLE3=Waylon Jennings - White Lightning
TTITLE4=Johnny Paycheck - Take This Job and Shove It
TTITLE5=George Jones - Cold Cold Heart
TTITLE6=Patsy Cline - A Stranger In My Arms
TTITLE7=Charley Pride - Kiss An Angel Good Morning
TTITLE8=Wanda Jackson - I Fall To Pieces
TTITLE9=Jim Reeves - Have I Told You Lately That I Love You?
TTITLE10=Hank Locklin - Please Help Me I'm Falling
TTITLE11=Johnny Paycheck - I'm the Only Hell Mama Ever Raised
TTITLE12=Waylon Jennings - Love of the Common People
TTITLE13=George Jones - World's Worst Lover
TTITLE14=Jim Reeves - Four Walls
TTITLE15=Willie Nelson - Night Life
TTITLE16=Patsy Cline - A Church, A Courtroom, then Goodbye
TTITLE17=Charley Pride - Help Me Make it Through the Night
EXTD=YEAR: 1996
EXTT0=
EXTT1=
EXTT2=
EXTT3=
EXTT4=
EXTT5=
EXTT6=
EXTT7=
EXTT8=
EXTT9=
EXTT10=
EXTT11=
EXTT12=
EXTT13=
EXTT14=
EXTT15=
EXTT16=
EXTT17=
PLAYORDER=
